<?xml version="1.0" standalone="no"?>
<!DOCTYPE svg PUBLIC "-//W3C//DTD SVG 20010904//EN"
 "http://www.w3.org/TR/2001/REC-SVG-20010904/DTD/svg10.dtd">
<svg version="1.0" xmlns="http://www.w3.org/2000/svg"
 width="500.000000pt" height="500.000000pt" viewBox="0 0 500.000000 500.000000"
 preserveAspectRatio="xMidYMid meet">

<g transform="translate(0.000000,500.000000) scale(0.100000,-0.100000)"
fill="#7209b6" stroke="none">
<path d="M1200 4730 c-50 -50 -8 -130 69 -130 101 -1 201 -101 201 -203 0 -46
33 -87 70 -87 45 0 69 28 80 92 5 31 15 69 23 85 32 60 113 113 172 113 81 0
125 78 72 128 -53 50 -205 8 -310 -87 l-37 -34 -23 24 c-42 45 -92 77 -154 98
-80 27 -137 27 -163 1z"/>
<path d="M2501 4479 c-70 -14 -170 -49 -246 -87 -85 -42 -191 -116 -206 -143
-14 -27 -2 -77 21 -89 10 -5 145 -35 301 -65 155 -30 284 -57 287 -59 2 -3
-16 -14 -40 -27 -209 -105 -384 -328 -453 -576 -16 -58 -16 -64 -1 -88 32 -49
51 -45 289 68 122 58 223 104 224 103 1 -1 -9 -29 -22 -62 -56 -139 -80 -299
-65 -441 11 -100 34 -198 56 -230 18 -29 58 -39 84 -22 16 11 396 588 465 707
11 17 22 32 26 32 15 0 22 -134 22 -390 -1 -393 -35 -716 -110 -1020 -28 -119
-77 -268 -90 -281 -6 -6 -56 -5 -129 2 -162 16 -736 17 -899 1 -214 -21 -433
-51 -460 -64 -42 -19 -50 -76 -15 -112 18 -19 25 -19 122 -7 647 79 1125 76
1698 -10 395 -60 899 -193 1268 -335 147 -57 180 -57 200 -4 14 36 -4 76 -41
93 -179 83 -635 226 -962 302 -60 14 -115 27 -121 29 -8 3 -4 34 12 103 26
108 54 281 54 336 0 45 -31 77 -75 77 -50 0 -62 -23 -85 -165 -33 -207 -60
-315 -79 -314 -9 0 -86 10 -171 23 -120 17 -155 26 -154 37 1 8 18 68 37 134
58 199 98 423 129 715 18 174 16 785 -4 944 l-14 120 40 58 40 58 41 -63 c105
-157 112 -175 130 -297 38 -267 47 -393 51 -718 3 -198 8 -342 14 -353 21 -39
99 -37 122 4 18 31 15 587 -4 755 -7 67 -12 122 -10 122 1 0 81 -119 177 -265
182 -276 196 -291 245 -265 79 42 106 401 46 603 -15 49 -33 102 -42 119 -8
16 -14 32 -11 34 2 2 103 -44 225 -102 192 -91 226 -104 250 -97 66 22 58 102
-28 278 -82 168 -223 320 -379 408 -46 26 -51 32 -35 39 10 4 138 31 283 59
145 28 272 56 282 62 24 15 38 57 29 83 -23 61 -236 192 -375 229 -33 9 -118
19 -190 22 -219 9 -387 -36 -554 -147 -79 -53 -192 -159 -235 -220 l-17 -25
-22 30 c-101 139 -274 262 -444 316 -68 21 -73 22 -97 6 -33 -22 -44 -63 -25
-95 10 -17 37 -33 91 -52 93 -32 168 -77 259 -153 74 -62 85 -82 42 -73 -16 3
-228 44 -473 92 -245 47 -449 89 -453 94 -14 13 120 60 221 76 53 9 105 23
115 32 23 21 23 84 -1 105 -20 19 -86 21 -161 6z m1809 -139 c83 -9 197 -42
256 -73 l29 -15 -25 -6 c-102 -25 -945 -184 -950 -179 -9 9 112 113 188 160
112 70 239 108 402 122 8 0 53 -4 100 -9z m-1211 -390 c57 -11 106 -22 109
-25 3 -3 -24 -18 -59 -34 -35 -16 -226 -106 -423 -200 -198 -94 -361 -169
-364 -166 -10 9 65 120 127 187 110 119 239 197 391 237 94 25 94 25 219 1z
m928 -5 c138 -32 276 -116 379 -228 53 -58 139 -186 130 -194 -3 -4 -686 316
-791 370 -56 29 -56 29 55 50 100 19 152 20 227 2z m-797 -180 c0 -9 -461
-720 -477 -735 -14 -13 -15 -3 -10 100 8 173 58 309 163 449 45 60 54 67 178
126 130 63 146 69 146 60z m576 -56 c138 -66 149 -75 223 -186 58 -85 94 -172
115 -276 16 -78 22 -227 9 -227 -5 0 -91 129 -193 286 -102 158 -211 326 -243
375 -31 49 -53 89 -48 89 4 0 66 -28 137 -61z"/>
<path d="M242 4359 c-25 -26 -28 -66 -9 -93 8 -10 41 -23 82 -32 123 -26 173
-76 199 -199 15 -72 33 -95 72 -95 36 0 74 37 74 72 0 113 84 205 203 223 62
9 90 33 90 73 0 48 -27 72 -83 72 -83 0 -182 -44 -249 -110 l-32 -32 -45 42
c-60 55 -141 91 -219 97 -55 5 -64 3 -83 -18z"/>
<path d="M1135 3718 c-31 -18 -35 -28 -35 -105 0 -63 3 -74 22 -87 31 -22 74
-20 98 4 16 16 20 33 20 89 0 63 -2 71 -26 90 -30 24 -50 26 -79 9z"/>
<path d="M600 3492 c-39 -31 -30 -76 26 -134 55 -55 88 -62 122 -25 36 38 29
73 -27 128 -53 54 -83 61 -121 31z"/>
<path d="M1614 3466 c-50 -50 -58 -92 -24 -126 34 -34 76 -26 126 24 36 35 44
50 44 79 0 42 -28 67 -74 67 -21 0 -41 -12 -72 -44z"/>
<path d="M1102 3309 c-119 -20 -240 -112 -297 -225 -28 -55 -30 -67 -30 -169
0 -105 2 -114 33 -177 88 -179 290 -267 479 -209 231 71 350 340 245 553 -80
164 -256 256 -430 227z m133 -150 c94 -26 175 -118 190 -215 14 -99 -52 -217
-149 -264 -55 -26 -155 -27 -211 -1 -50 22 -99 71 -126 122 -97 191 88 416
296 358z"/>
<path d="M1820 2982 c-51 -16 -68 -84 -30 -122 26 -26 133 -28 168 -4 28 20
31 83 4 108 -18 16 -111 28 -142 18z"/>
<path d="M375 2966 c-28 -20 -26 -83 4 -107 30 -24 136 -26 169 -3 28 20 31
83 4 107 -24 22 -149 24 -177 3z"/>
<path d="M620 2465 c-48 -49 -57 -90 -25 -125 32 -35 79 -27 130 25 51 50 59
91 25 125 -35 35 -79 26 -130 -25z"/>
<path d="M1587 2492 c-31 -34 -22 -80 27 -128 50 -50 92 -58 126 -24 34 34 26
76 -24 126 -35 35 -50 44 -78 44 -21 0 -41 -7 -51 -18z"/>
<path d="M1150 2313 c-41 -15 -50 -35 -50 -108 0 -84 15 -105 73 -105 51 0 67
27 67 111 0 50 -4 70 -17 81 -22 19 -53 28 -73 21z"/>
<path d="M1031 1640 c-205 -53 -393 -110 -581 -177 -214 -76 -277 -106 -292
-138 -15 -34 -1 -75 33 -94 24 -13 37 -10 190 46 229 85 449 154 662 208 199
51 227 66 227 120 0 35 -22 61 -60 69 -14 3 -92 -12 -179 -34z"/>
<path d="M176 929 c-56 -44 -18 -129 59 -129 34 0 60 -16 154 -96 77 -67 139
-88 235 -82 87 6 139 31 220 105 64 60 90 73 141 73 51 0 79 -14 144 -74 83
-76 130 -98 221 -104 102 -6 167 19 251 97 79 72 97 81 151 81 48 0 66 -10
163 -92 86 -72 142 -92 239 -86 87 6 136 29 217 104 65 60 93 74 144 74 51 0
79 -14 144 -74 93 -85 129 -101 236 -101 93 0 143 16 172 54 19 24 15 69 -7
91 -24 24 -59 25 -118 5 -64 -23 -108 -7 -190 67 -91 83 -136 103 -237 103
-101 0 -150 -22 -238 -104 -111 -103 -170 -102 -289 1 -93 81 -147 103 -248
102 -94 -1 -141 -22 -233 -105 -111 -100 -174 -100 -284 2 -73 69 -126 96
-205 105 -92 11 -210 -35 -273 -106 -48 -54 -96 -80 -149 -80 -59 0 -74 8
-168 96 -95 89 -195 118 -252 73z"/>
<path d="M3215 939 c-28 -17 -35 -29 -35 -62 0 -45 17 -66 58 -72 20 -3 47 -8
59 -11 13 -2 55 -33 95 -69 93 -85 154 -109 258 -103 91 6 138 28 221 104 65
60 93 74 144 74 51 0 77 -13 141 -73 81 -74 133 -99 220 -105 96 -6 158 15
235 82 94 80 120 96 154 96 78 0 115 85 58 130 -59 46 -183 5 -292 -96 -103
-95 -169 -93 -278 7 -87 82 -136 103 -238 103 -102 0 -151 -21 -238 -103 -109
-101 -174 -102 -279 -6 -35 32 -86 68 -115 82 -61 28 -140 39 -168 22z"/>
<path d="M171 561 c-26 -26 -28 -81 -3 -104 10 -9 42 -21 71 -27 43 -8 65 -21
133 -80 97 -84 155 -106 254 -97 68 7 146 40 179 77 11 13 42 40 68 61 42 34
56 39 99 39 60 0 76 -8 152 -76 73 -67 130 -94 204 -101 49 -4 60 -2 80 16 22
22 30 74 14 97 -11 18 -49 34 -77 34 -36 0 -60 14 -129 76 -75 68 -131 95
-210 101 -100 8 -161 -14 -245 -92 -83 -76 -117 -95 -168 -95 -48 1 -67 11
-150 86 -85 76 -121 95 -193 101 -49 5 -60 3 -79 -16z"/>
<path d="M3152 563 c-24 -8 -72 -42 -112 -78 -81 -75 -116 -95 -165 -95 -47 0
-87 22 -149 80 -83 78 -125 95 -236 95 -113 0 -142 -13 -243 -104 -106 -96
-168 -96 -275 1 -92 83 -147 108 -242 108 -88 0 -172 -33 -191 -74 -16 -33 1
-78 34 -94 24 -11 36 -10 90 8 86 29 121 19 212 -61 92 -82 140 -103 235 -103
95 0 140 20 242 106 118 101 176 100 285 -3 78 -73 149 -104 243 -104 93 1
147 24 230 101 114 107 170 108 286 8 95 -84 148 -108 239 -108 96 -1 151 22
238 100 119 108 178 108 295 2 91 -83 136 -102 237 -102 100 0 148 20 232 97
63 59 114 87 158 87 32 0 65 33 65 64 0 14 -12 38 -26 55 -22 26 -33 31 -70
31 -70 0 -145 -34 -215 -99 -78 -71 -97 -81 -148 -81 -57 0 -81 12 -147 73
-92 85 -132 102 -239 102 -107 0 -147 -17 -239 -102 -66 -61 -90 -73 -147 -73
-51 0 -70 10 -148 81 -101 93 -217 122 -329 82z"/>
</g>
</svg>
