<svg width="8" height="8" viewBox="0 0 8 8" fill="none" xmlns="http://www.w3.org/2000/svg">
<rect x="0.1" y="0.1" width="7.8" height="7.8" fill="#0C54CC"/>
<rect x="0.1" y="0.1" width="7.8" height="7.8" stroke="black" stroke-width="0.2"/>
<path d="M1.073 1.42701C1.04975 1.40377 1.03131 1.37617 1.01873 1.3458C1.00615 1.31543 0.99968 1.28288 0.99968 1.25001C0.99968 1.21714 1.00615 1.18459 1.01873 1.15422C1.03131 1.12385 1.04975 1.09625 1.073 1.07301C1.09624 1.04977 1.12383 1.03133 1.1542 1.01875C1.18457 1.00617 1.21712 0.999695 1.25 0.999695C1.28287 0.999695 1.31542 1.00617 1.34579 1.01875C1.37616 1.03133 1.40375 1.04977 1.427 1.07301L4 3.64651L6.573 1.07301C6.59624 1.04977 6.62383 1.03133 6.6542 1.01875C6.68457 1.00617 6.71712 0.999695 6.75 0.999695C6.78287 0.999695 6.81542 1.00617 6.84579 1.01875C6.87616 1.03133 6.90375 1.04977 6.927 1.07301C6.95024 1.09625 6.96868 1.12385 6.98126 1.15422C6.99384 1.18459 7.00031 1.21714 7.00031 1.25001C7.00031 1.28288 6.99384 1.31543 6.98126 1.3458C6.96868 1.37617 6.95024 1.40377 6.927 1.42701L4.3535 4.00001L6.927 6.57301C6.95024 6.59625 6.96868 6.62385 6.98126 6.65422C6.99384 6.68459 7.00031 6.71714 7.00031 6.75001C7.00031 6.78288 6.99384 6.81543 6.98126 6.8458C6.96868 6.87617 6.95024 6.90377 6.927 6.92701C6.90375 6.95025 6.87616 6.96869 6.84579 6.98127C6.81542 6.99385 6.78287 7.00033 6.75 7.00033C6.71712 7.00033 6.68457 6.99385 6.6542 6.98127C6.62383 6.96869 6.59624 6.95025 6.573 6.92701L4 4.35351L1.427 6.92701C1.40375 6.95025 1.37616 6.96869 1.34579 6.98127C1.31542 6.99385 1.28287 7.00033 1.25 7.00033C1.21712 7.00033 1.18457 6.99385 1.1542 6.98127C1.12383 6.96869 1.09624 6.95025 1.073 6.92701C1.04975 6.90377 1.03131 6.87617 1.01873 6.8458C1.00615 6.81543 0.99968 6.78288 0.99968 6.75001C0.99968 6.71714 1.00615 6.68459 1.01873 6.65422C1.03131 6.62385 1.04975 6.59625 1.073 6.57301L3.6465 4.00001L1.073 1.42701Z" fill="white"/>
</svg>
