<svg xmlns="http://www.w3.org/2000/svg" fill="none" viewBox="0 0 128 128" id="Notification">
  <path stroke="#7209af" stroke-width="5" d="M74 94C74 98.9706 69.7467 103 64.5 103 59.2533 103 55 98.9706 55 94M37.4308 53.0692C37.4308 38.1193 49.5501 26 64.5 26V26 26C79.4499 26 91.5692 38.1193 91.5692 53.0692V71.7078C91.5692 75.5724 92.4404 79.3873 94.1181 82.8688L97.7946 90.4984C98.3527 91.6566 97.5088 93 96.2232 93H32.7768C31.4912 93 30.6473 91.6566 31.2054 90.4984L34.8819 82.8688C36.5596 79.3873 37.4308 75.5724 37.4308 71.7078V53.0692z" class="colorStroke000000 svgStroke"></path>
</svg>
